<svg width="1200" height="630" viewBox="0 0 1200 630" fill="none" xmlns="http://www.w3.org/2000/svg">
  <defs>
    <linearGradient id="og-gradient" x1="0%" y1="0%" x2="100%" y2="100%">
      <stop offset="0%" stop-color="#818CF8"/>
      <stop offset="50%" stop-color="#6366F1"/>
      <stop offset="100%" stop-color="#4F46E5"/>
    </linearGradient>
    <linearGradient id="text-gradient-og" x1="0%" y1="0%" x2="100%" y2="0%">
      <stop offset="0%" stop-color="#A5B4FC"/>
      <stop offset="50%" stop-color="#C7D2FE"/>
      <stop offset="100%" stop-color="#E0E7FF"/>
    </linearGradient>
  </defs>
  
  <!-- Background -->
  <rect width="1200" height="630" fill="#0F0F1A"/>
  
  <!-- Decorative circles -->
  <circle cx="100" cy="100" r="200" fill="url(#og-gradient)" opacity="0.1"/>
  <circle cx="1100" cy="530" r="250" fill="url(#og-gradient)" opacity="0.1"/>
  
  <!-- Grid pattern -->
  <g opacity="0.05">
    <line x1="0" y1="157.5" x2="1200" y2="157.5" stroke="white" stroke-width="1"/>
    <line x1="0" y1="315" x2="1200" y2="315" stroke="white" stroke-width="1"/>
    <line x1="0" y1="472.5" x2="1200" y2="472.5" stroke="white" stroke-width="1"/>
    <line x1="300" y1="0" x2="300" y2="630" stroke="white" stroke-width="1"/>
    <line x1="600" y1="0" x2="600" y2="630" stroke="white" stroke-width="1"/>
    <line x1="900" y1="0" x2="900" y2="630" stroke="white" stroke-width="1"/>
  </g>
  
  <!-- Logo icon -->
  <g transform="translate(500, 180)">
    <circle cx="100" cy="100" r="90" fill="url(#og-gradient)"/>
    
    <!-- Connection lines -->
    <path d="M100 30 L100 100 L170 100" stroke="white" stroke-width="10" stroke-linecap="round" stroke-linejoin="round" opacity="0.4"/>
    <path d="M30 100 L100 100 L100 170" stroke="white" stroke-width="10" stroke-linecap="round" stroke-linejoin="round" opacity="0.4"/>
    
    <!-- Nodes -->
    <circle cx="100" cy="30" r="15" fill="white"/>
    <circle cx="170" cy="100" r="15" fill="white"/>
    <circle cx="100" cy="100" r="18" fill="white" opacity="0.5"/>
    <circle cx="30" cy="100" r="15" fill="white"/>
    <circle cx="100" cy="170" r="15" fill="white"/>
    <circle cx="100" cy="100" r="8" fill="white" opacity="0.9"/>
  </g>
  
  <!-- Title -->
  <text x="600" y="420" text-anchor="middle" font-family="ui-sans-serif, system-ui, -apple-system, sans-serif" font-size="72" font-weight="700" fill="white">Context</text>
  
  <!-- Tagline -->
  <text x="600" y="480" text-anchor="middle" font-family="ui-sans-serif, system-ui, -apple-system, sans-serif" font-size="28" fill="url(#text-gradient-og)">Your second brain for notes, ideas, and connections</text>
</svg>