<svg width="1200" height="630" viewBox="0 0 1200 630" fill="none" xmlns="http://www.w3.org/2000/svg">
  <defs>
    <linearGradient id="og-gradient" x1="0%" y1="0%" x2="100%" y2="100%">
      <stop offset="0%" stop-color="#A5B4FC"/>
      <stop offset="50%" stop-color="#6366F1"/>
      <stop offset="100%" stop-color="#4F46E5"/>
    </linearGradient>
    <linearGradient id="og-text-gradient" x1="0%" y1="0%" x2="100%" y2="0%">
      <stop offset="0%" stop-color="#C7D2FE"/>
      <stop offset="100%" stop-color="#A5B4FC"/>
    </linearGradient>
  </defs>
  
  <!-- Background -->
  <rect width="1200" height="630" fill="#0F0F1A"/>
  
  <!-- Decorative circles -->
  <circle cx="100" cy="100" r="200" fill="url(#og-gradient)" opacity="0.1"/>
  <circle cx="1100" cy="530" r="250" fill="url(#og-gradient)" opacity="0.1"/>
  
  <!-- Grid pattern -->
  <g opacity="0.05">
    <line x1="0" y1="157.5" x2="1200" y2="157.5" stroke="white" stroke-width="1"/>
    <line x1="0" y1="315" x2="1200" y2="315" stroke="white" stroke-width="1"/>
    <line x1="0" y1="472.5" x2="1200" y2="472.5" stroke="white" stroke-width="1"/>
    <line x1="300" y1="0" x2="300" y2="630" stroke="white" stroke-width="1"/>
    <line x1="600" y1="0" x2="600" y2="630" stroke="white" stroke-width="1"/>
    <line x1="900" y1="0" x2="900" y2="630" stroke="white" stroke-width="1"/>
  </g>
  
  <!-- Logo icon - C made of connected nodes -->
  <g transform="translate(500, 150)">
    <!-- C curve -->
    <path 
      d="M112 8 C28 8 8 36 8 50 C8 64 28 92 112 92"
      stroke="url(#og-gradient)"
      stroke-width="10"
      stroke-linecap="round"
      fill="none"
      opacity="0.5"
    />
    
    <!-- Nodes -->
    <circle cx="100" cy="8" r="16" fill="url(#og-gradient)"/>
    <circle cx="100" cy="8" r="8" fill="white" opacity="0.5"/>
    <circle cx="56" cy="16" r="12" fill="url(#og-gradient)"/>
    <circle cx="32" cy="42" r="10" fill="url(#og-gradient)"/>
    <circle cx="32" cy="58" r="10" fill="url(#og-gradient)"/>
    <circle cx="56" cy="84" r="12" fill="url(#og-gradient)"/>
    <circle cx="100" cy="92" r="16" fill="url(#og-gradient)"/>
    <circle cx="100" cy="92" r="8" fill="white" opacity="0.5"/>
  </g>
  
  <!-- Title -->
  <text x="600" y="360" text-anchor="middle" font-family="ui-sans-serif, system-ui, -apple-system, sans-serif" font-size="72" font-weight="700" fill="white">Context</text>
  
  <!-- Tagline -->
  <text x="600" y="420" text-anchor="middle" font-family="ui-sans-serif, system-ui, -apple-system, sans-serif" font-size="28" fill="url(#og-text-gradient)">Your second brain for notes, ideas, and connections</text>
  
  <!-- Feature highlights -->
  <g transform="translate(200, 480)" fill="white" opacity="0.7" font-family="ui-sans-serif, system-ui, -apple-system, sans-serif" font-size="18">
    <text x="0" y="0">Semantic Search</text>
    <text x="200" y="0">Timeline View</text>
    <text x="400" y="0">Entity Extraction</text>
    <text x="640" y="0">AI-Powered Chat</text>
  </g>
</svg>